<svg width="13" height="14" viewBox="0 0 13 14" fill="none" xmlns="http://www.w3.org/2000/svg">
<path d="M2.6 1.32213C1.88204 1.32213 1.3 1.91408 1.3 2.64427V7.9328C1.3 8.66298 1.88204 9.25493 2.6 9.25493H3.25C3.60898 9.25493 3.9 9.5509 3.9 9.916V11.325L6.78944 9.36595C6.89621 9.29356 7.02168 9.25493 7.15 9.25493H10.4C11.118 9.25493 11.7 8.66298 11.7 7.9328V2.64427C11.7 1.91408 11.118 1.32213 10.4 1.32213H2.6ZM0 2.64427C0 1.18388 1.16406 0 2.6 0H10.4C11.836 0 13 1.18388 13 2.64427V7.9328C13 9.39319 11.836 10.5771 10.4 10.5771H7.34681L3.61055 13.1103C3.4111 13.2455 3.15464 13.2581 2.94329 13.1431C2.73194 13.028 2.6 12.8041 2.6 12.5603V10.5771C1.16406 10.5771 0 9.39319 0 7.9328V2.64427Z" fill="gray"/>
</svg>
