<svg width="13" height="15" viewBox="0 0 13 15" fill="none" xmlns="http://www.w3.org/2000/svg">
<path d="M4.72729 6.00966V10.8174C4.72729 11.1493 4.99186 11.4184 5.3182 11.4184C5.64455 11.4184 5.90911 11.1493 5.90911 10.8174V6.00966C5.90911 5.67776 5.64455 5.40869 5.3182 5.40869C4.99186 5.40869 4.72729 5.67776 4.72729 6.00966Z" fill="gray"/>
<path d="M7.68173 5.40869C8.00808 5.40869 8.27264 5.67776 8.27264 6.00966V10.8174C8.27264 11.1493 8.00808 11.4184 7.68173 11.4184C7.35538 11.4184 7.09082 11.1493 7.09082 10.8174V6.00966C7.09082 5.67776 7.35538 5.40869 7.68173 5.40869Z" fill="gray"/>
<path d="M8.86364 2.40388H12.4091C12.7354 2.40388 13 2.67294 13 3.00485C13 3.33675 12.7354 3.60582 12.4091 3.60582H11.7561L10.8663 11.7503C10.7001 13.272 9.4354 14.4233 7.92989 14.4233H5.07009C3.56461 14.4233 2.29988 13.272 2.13362 11.7503L1.24383 3.60582H0.590909C0.264562 3.60582 0 3.33675 0 3.00485C0 2.67294 0.264562 2.40388 0.590909 2.40388H4.13636C4.13636 1.07625 5.1946 0 6.5 0C7.8054 0 8.86364 1.07625 8.86364 2.40388ZM6.5 1.20194C5.84731 1.20194 5.31818 1.74007 5.31818 2.40388H7.68182C7.68182 1.74007 7.15271 1.20194 6.5 1.20194ZM2.43293 3.60582L3.3082 11.6175C3.40796 12.5306 4.1668 13.2213 5.07009 13.2213H7.92989C8.83318 13.2213 9.59199 12.5306 9.69174 11.6175L10.5671 3.60582H2.43293Z" fill="gray"/>
</svg>
